<svg viewBox="0 0 166 166" xmlns="http://www.w3.org/2000/svg" xml:space="preserve" style="fill-rule:evenodd;clip-rule:evenodd;stroke-linejoin:round;stroke-miterlimit:2">
  <desc>Traced by Dogo314</desc>
  <g transform="scale(.1537)">
    <path style="fill:none" d="M0 0h1080v1080H0z"/>
    <clipPath id="a">
      <path d="M0 0h1080v1080H0z"/>
    </clipPath>
    <g clip-path="url(#a)">
      <path d="M434 44c46.361 0 84 37.639 84 84s-37.639 84-84 84-84-37.639-84-84 37.639-84 84-84m0 27.325-44.277 14.833 3.099 43.834-13.726 14.169 18.375 21.917 12.177-4.87 5.091 17.932L434 184.675l19.261-5.535 5.091-17.932 12.177 4.87 18.375-21.917-13.726-14.169 3.099-43.834zm0 77.485 7.306 11.07-3.521 3.52-3.785-5.734-3.785 5.734-3.521-3.52zm-23.91-22.581c6.232 0 11.291 5.059 11.291 11.291 0 6.231-5.059 11.29-11.291 11.29-6.231 0-11.29-5.059-11.29-11.29 0-6.232 5.059-11.291 11.29-11.291m47.82 0c6.231 0 11.29 5.059 11.29 11.291 0 6.231-5.059 11.29-11.29 11.29-6.232 0-11.291-5.059-11.291-11.29 0-6.232 5.059-11.291 11.291-11.291" style="fill:#fff" transform="translate(-2250 -282.857)scale(6.42857)"/>
    </g>
  </g>
</svg>
